<?xml version="1.0" standalone="no"?><!DOCTYPE svg PUBLIC "-//W3C//DTD SVG 1.1//EN" "http://www.w3.org/Graphics/SVG/1.1/DTD/svg11.dtd"><svg t="1729513685036" class="icon" viewBox="0 0 1024 1024" version="1.1" xmlns="http://www.w3.org/2000/svg" p-id="5576" xmlns:xlink="http://www.w3.org/1999/xlink" width="200" height="200"><path d="M20.48 20.48h983.04v983.04H20.48z" fill="#FFFFFF" p-id="5577"></path><path d="M302.20288 177.93024a40.96 40.96 0 0 1 40.96-40.96h319.56992a40.96 40.96 0 0 1 40.96 40.96v20.48H302.20288v-20.48zM112.64 378.0608c0-19.6608 15.9744-35.6352 35.6352-35.6352h727.4496c19.6608 0 35.6352 15.9744 35.6352 35.6352v486.72768c0 19.6608-15.9744 35.6352-35.6352 35.6352H148.2752a35.6352 35.6352 0 0 1-35.6352-35.6352V378.10176z m61.44 25.8048v435.11808h675.84V403.90656H174.08zM221.67552 239.616a40.96 40.96 0 0 0-40.96 40.96v20.48H843.3664v-20.48a40.96 40.96 0 0 0-40.96-40.96H221.67552z" fill="#000000" p-id="5578"></path></svg>