<?xml version="1.0" standalone="no"?><!DOCTYPE svg PUBLIC "-//W3C//DTD SVG 1.1//EN" "http://www.w3.org/Graphics/SVG/1.1/DTD/svg11.dtd"><svg t="1729514484322" class="icon" viewBox="0 0 1024 1024" version="1.1" xmlns="http://www.w3.org/2000/svg" p-id="10034" xmlns:xlink="http://www.w3.org/1999/xlink" width="200" height="200"><path d="M512 1019.18c-68.45 0-134.88-13.42-197.43-39.87-60.4-25.55-114.64-62.11-161.2-108.68-46.57-46.57-83.13-100.8-108.68-161.2C18.23 646.88 4.82 580.45 4.82 512s13.42-134.88 39.87-197.43c25.55-60.4 62.11-114.63 108.68-161.2 46.57-46.57 100.8-83.13 161.2-108.68C377.12 18.24 443.55 4.82 512 4.82s134.88 13.42 197.43 39.87c60.4 25.55 114.63 62.11 161.2 108.68 46.57 46.57 83.13 100.8 108.68 161.2 26.46 62.55 39.87 128.98 39.87 197.43s-13.42 134.88-39.87 197.43c-25.55 60.4-62.11 114.64-108.68 161.2-46.57 46.57-100.8 83.13-161.2 108.68-62.55 26.45-128.98 39.87-197.43 39.87z m0-938.36C274.25 80.82 80.82 274.25 80.82 512S274.25 943.18 512 943.18 943.18 749.75 943.18 512 749.75 80.82 512 80.82z" p-id="10035"></path><path d="M452.95 695.99c-42.34-73.56-121.31-119.25-206.08-119.25-58.48 0-114.69 21.43-158.28 60.35L37.97 580.4c57.53-51.37 131.72-79.66 208.9-79.66 56.13 0 111.22 15.01 159.31 43.42 46.65 27.56 85.6 66.95 112.64 113.92l-65.87 37.91z" p-id="10036"></path><path d="M377.45 972.96a485.789 485.789 0 0 1-2.83-52.3c0-94.58 27.52-186.09 79.6-264.63 89.14-134.61 238.69-214.99 400.03-214.99 50.85 0 100.99 7.95 149.02 23.63l-23.59 72.25c-40.4-13.19-82.6-19.88-125.44-19.88-135.78 0-261.63 67.65-336.67 180.97-43.8 66.07-66.95 143.06-66.95 222.65 0 14.68 0.8 29.51 2.39 44.09l-75.56 8.21zM428.57 244.79c-32.36 0-58.58 26.23-58.58 58.59s26.23 58.58 58.58 58.58 58.58-26.23 58.58-58.58-26.22-58.59-58.58-58.59z" p-id="10037"></path></svg>