<?xml version="1.0" standalone="no"?><!DOCTYPE svg PUBLIC "-//W3C//DTD SVG 1.1//EN" "http://www.w3.org/Graphics/SVG/1.1/DTD/svg11.dtd"><svg t="1729514681954" class="icon" viewBox="0 0 1024 1024" version="1.1" xmlns="http://www.w3.org/2000/svg" p-id="11023" xmlns:xlink="http://www.w3.org/1999/xlink" width="200" height="200"><path d="M763.733333 85.333333H234.666667C200.533333 85.333333 170.666667 115.2 170.666667 153.6v691.2c0 38.4 29.866667 68.266667 64 68.266667H768c34.133333 0 64-29.866667 64-68.266667V153.6c-4.266667-38.4-34.133333-68.266667-68.266667-68.266667zM375.466667 153.6h102.4v192l-8.533334-8.533333-29.866666-29.866667c-4.266667-8.533333-17.066667-8.533333-25.6 0l-38.4 42.666667V153.6z m388.266666 691.2H234.666667v-51.2H768v51.2z m0-119.466667H234.666667V153.6h81.066666v256c0 17.066667 12.8 34.133333 29.866667 34.133333 21.333333 0 38.4-8.533333 51.2-21.333333L426.666667 384l29.866666 34.133333c12.8 17.066667 34.133333 21.333333 51.2 25.6 17.066667 0 29.866667-12.8 29.866667-34.133333v-256h221.866667V725.333333z" fill="#2c2c2c" p-id="11024"></path></svg>