<?xml version="1.0" standalone="no"?><!DOCTYPE svg PUBLIC "-//W3C//DTD SVG 1.1//EN" "http://www.w3.org/Graphics/SVG/1.1/DTD/svg11.dtd"><svg t="1729513492837" class="icon" viewBox="0 0 1024 1024" version="1.1" xmlns="http://www.w3.org/2000/svg" p-id="4246" xmlns:xlink="http://www.w3.org/1999/xlink" width="200" height="200"><path d="M736 123.904c61.152 35.296 83.264 116.64 71.2 217.536C900.608 381.44 960 441.248 960 511.872c0 70.656-59.392 130.464-152.832 170.464 12.096 100.864-10.016 182.208-71.168 217.536-61.152 35.296-142.656 13.76-224-47.104-81.344 60.864-162.816 82.4-224 47.104-61.152-35.328-83.264-116.672-71.2-217.536C123.392 642.336 64 582.496 64 511.872s59.392-130.432 152.832-170.432C204.736 240.544 226.848 159.2 288 123.904c61.184-35.328 142.656-13.76 224 47.136 81.344-60.928 162.848-82.464 224-47.136z m9.184 580.576l-8 2.304a752 752 0 0 1-100.672 20.736 743.296 743.296 0 0 1-74.304 82.624c56.608 39.648 108.384 53.568 141.792 34.304 31.968-18.464 45.984-66.656 41.856-131.072l-0.672-8.896zM320 844.48c33.408 19.264 85.184 5.344 141.824-34.336a737.856 737.856 0 0 1-74.304-82.56 757.12 757.12 0 0 1-100.704-20.768l-8-2.304c-6.048 68.864 7.776 120.64 41.184 139.968z m225.92-109.152l-10.688 0.32a958.112 958.112 0 0 1-57.152-0.32c11.296 12.16 22.624 23.52 33.92 33.984 11.296-10.496 22.624-21.824 33.92-33.984zM512 351.872c-30.944 0-60.96 1.632-89.664 4.704a852.96 852.96 0 0 0-48.896 75.296 851.36 851.36 0 0 0-40.8 80 856.128 856.128 0 0 0 89.696 155.328c28.704 3.04 58.72 4.672 89.664 4.672 30.944 0 60.96-1.6 89.664-4.672 16.992-23.36 33.44-48.512 48.896-75.328 15.488-26.784 29.056-53.6 40.768-80a848.896 848.896 0 0 0-40.768-80 851.392 851.392 0 0 0-48.864-75.264A842.336 842.336 0 0 0 512 351.872zM301.6 594.24l-1.728 5.536c-4.16 13.92-7.776 27.52-10.784 40.8 14.72 4.544 30.24 8.704 46.4 12.384a910.592 910.592 0 0 1-33.92-58.72z m420.8 0l-4.672 8.704a957.856 957.856 0 0 1-29.216 50.016c16.16-3.68 31.68-7.84 46.368-12.384a594.56 594.56 0 0 0-7.808-30.624l-4.64-15.712z m72.96-188l-0.32 1.536a745.28 745.28 0 0 1-34.048 104.128 742.656 742.656 0 0 1 34.4 105.6c62.656-29.184 100.608-67.04 100.608-105.6 0-38.624-37.952-76.48-100.64-105.664z m-566.752 0l-6.496 3.104C163.328 438.112 128 474.624 128 511.872c0 38.592 37.952 76.48 100.64 105.664a739.648 739.648 0 0 1 34.336-105.632 744.864 744.864 0 0 1-34.368-105.696zM512 447.84a64 64 0 1 1 0 128 64 64 0 0 1 0-128z m-176.512-77.056l-9.152 2.144c-12.896 3.104-25.312 6.528-37.216 10.24 3.392 14.976 7.552 30.464 12.448 46.304a1025.6 1025.6 0 0 1 33.92-58.688z m352.992 0l5.248 8.448a957.856 957.856 0 0 1 28.672 50.24c4.928-15.84 9.088-31.328 12.48-46.336-14.72-4.544-30.208-8.672-46.4-12.352zM320 179.328c-33.408 19.296-47.232 71.072-41.184 139.936l8-2.304a752 752 0 0 1 100.64-20.736 746.24 746.24 0 0 1 74.336-82.624C405.184 173.984 353.408 160.032 320 179.328z m242.24 34.304c25.376 24.128 50.368 51.84 74.24 82.592 35.584 4.928 69.344 11.904 100.704 20.736l8 2.304c6.048-68.864-7.776-120.64-41.184-139.936-31.968-18.464-80.704-6.496-134.432 29.28l-7.36 5.024zM512 254.528l-3.04 2.784c-10.24 9.664-20.576 20.064-30.816 31.136a954.432 954.432 0 0 1 67.744 0.032 631.36 631.36 0 0 0-22.592-23.232l-11.264-10.72z" fill="#515151" p-id="4247"></path></svg>